%TF.GenerationSoftware,KiCad,Pcbnew,8.0.8*%
%TF.CreationDate,2025-04-28T03:19:26-05:00*%
%TF.ProjectId,TBA_PCB,5442415f-5043-4422-9e6b-696361645f70,rev?*%
%TF.SameCoordinates,Original*%
%TF.FileFunction,Soldermask,Top*%
%TF.FilePolarity,Negative*%
%FSLAX46Y46*%
G04 Gerber Fmt 4.6, Leading zero omitted, Abs format (unit mm)*
G04 Created by KiCad (PCBNEW 8.0.8) date 2025-04-28 03:19:26*
%MOMM*%
%LPD*%
G01*
G04 APERTURE LIST*
G04 Aperture macros list*
%AMRoundRect*
0 Rectangle with rounded corners*
0 $1 Rounding radius*
0 $2 $3 $4 $5 $6 $7 $8 $9 X,Y pos of 4 corners*
0 Add a 4 corners polygon primitive as box body*
4,1,4,$2,$3,$4,$5,$6,$7,$8,$9,$2,$3,0*
0 Add four circle primitives for the rounded corners*
1,1,$1+$1,$2,$3*
1,1,$1+$1,$4,$5*
1,1,$1+$1,$6,$7*
1,1,$1+$1,$8,$9*
0 Add four rect primitives between the rounded corners*
20,1,$1+$1,$2,$3,$4,$5,0*
20,1,$1+$1,$4,$5,$6,$7,0*
20,1,$1+$1,$6,$7,$8,$9,0*
20,1,$1+$1,$8,$9,$2,$3,0*%
G04 Aperture macros list end*
%ADD10R,1.700000X1.700000*%
%ADD11O,1.700000X1.700000*%
%ADD12R,1.200000X1.200000*%
%ADD13C,1.200000*%
%ADD14C,1.400000*%
%ADD15O,1.400000X1.400000*%
%ADD16C,1.764000*%
%ADD17RoundRect,0.102000X-0.780000X-0.780000X0.780000X-0.780000X0.780000X0.780000X-0.780000X0.780000X0*%
G04 APERTURE END LIST*
D10*
%TO.C,J8*%
X113000000Y-134560000D03*
D11*
X113000000Y-137100000D03*
X113000000Y-139640000D03*
X113000000Y-142180000D03*
X113000000Y-144720000D03*
X113000000Y-147260000D03*
%TD*%
D10*
%TO.C,J2*%
X168000000Y-92500000D03*
D11*
X168000000Y-89960000D03*
X168000000Y-87420000D03*
X168000000Y-84880000D03*
%TD*%
D10*
%TO.C,J5*%
X107900000Y-62500000D03*
D11*
X107900000Y-65040000D03*
%TD*%
D12*
%TO.C,C1*%
X81100000Y-107727400D03*
D13*
X81100000Y-109727400D03*
%TD*%
D14*
%TO.C,R2*%
X66880000Y-72800000D03*
D15*
X69420000Y-72800000D03*
%TD*%
D10*
%TO.C,J4*%
X79900000Y-134700000D03*
D11*
X79900000Y-137240000D03*
X79900000Y-139780000D03*
X79900000Y-142320000D03*
%TD*%
D14*
%TO.C,R1*%
X67200000Y-119740000D03*
D15*
X69740000Y-119740000D03*
%TD*%
D10*
%TO.C,J1*%
X91500000Y-76860000D03*
D11*
X91500000Y-79400000D03*
X91500000Y-81940000D03*
X91500000Y-84480000D03*
%TD*%
D10*
%TO.C,J3*%
X95400000Y-104660000D03*
D11*
X95400000Y-107200000D03*
X95400000Y-109740000D03*
X95400000Y-112280000D03*
X95400000Y-114820000D03*
%TD*%
D10*
%TO.C,J6*%
X61800000Y-106020000D03*
D11*
X61800000Y-108560000D03*
X61800000Y-111100000D03*
%TD*%
D10*
%TO.C,J7*%
X62400000Y-85360000D03*
D11*
X62400000Y-87900000D03*
X62400000Y-90440000D03*
%TD*%
D10*
%TO.C,J9*%
X138600000Y-136900000D03*
D11*
X138600000Y-139440000D03*
X138600000Y-141980000D03*
X138600000Y-144520000D03*
%TD*%
D16*
%TO.C,U1*%
X149600000Y-116160000D03*
X149600000Y-113620000D03*
X149600000Y-111080000D03*
X149600000Y-108540000D03*
X149600000Y-106000000D03*
X149600000Y-103460000D03*
X149600000Y-100920000D03*
X149600000Y-98380000D03*
X149600000Y-95840000D03*
X149600000Y-93300000D03*
X149600000Y-90760000D03*
X149600000Y-88220000D03*
X149600000Y-85680000D03*
X149600000Y-83140000D03*
X149600000Y-80600000D03*
X149600000Y-78060000D03*
X149600000Y-75520000D03*
X149600000Y-72980000D03*
X149600000Y-70440000D03*
X124200000Y-116160000D03*
X124200000Y-113620000D03*
X124200000Y-111080000D03*
X124200000Y-108540000D03*
X124200000Y-106000000D03*
X124200000Y-103460000D03*
X124200000Y-100920000D03*
X124200000Y-98380000D03*
X124200000Y-95840000D03*
X124200000Y-93300000D03*
X124200000Y-90760000D03*
X124200000Y-88220000D03*
X124200000Y-85680000D03*
X124200000Y-83140000D03*
X124200000Y-80600000D03*
X124200000Y-78060000D03*
X124200000Y-75520000D03*
X124200000Y-72980000D03*
D17*
X124200000Y-70440000D03*
%TD*%
M02*
